<?xml version="1.0" encoding="utf-8"?>
<!-- Generator: Adobe Illustrator 26.0.2, SVG Export Plug-In . SVG Version: 6.00 Build 0)  -->
<svg version="1.1" id="レイヤー_1" xmlns="http://www.w3.org/2000/svg" xmlns:xlink="http://www.w3.org/1999/xlink" x="0px"
	 y="0px" viewBox="0 0 196.7 58.3" style="enable-background:new 0 0 196.7 58.3;" xml:space="preserve">
<style type="text/css">
	
		.st0{clip-path:url(#SVGID_00000143596157844775917840000002300571335481850535_);fill:url(#SVGID_00000163053670904559034300000013002765968969137828_);}
	.st1{fill:#FFFFFF;}
	.st2{fill:#1F8A78;}
</style>
<g>
	<g>
		<defs>
			<path id="SVGID_1_" d="M51.9,0.4L40.8,9.6l-2.2-4.9c-0.2-0.5-0.9-0.2-0.8,0.3l1.4,5.9l-8.1,6.8c-0.1,0.1-0.3,0.1-0.5,0.1
				l-14.3-5.1c-0.2-0.1-0.3,0-0.5,0.1L0.5,26.2c-0.5,0.4,0.1,1.1,0.6,0.7l14.7-11.4c0.1-0.1,0.3-0.1,0.5-0.1l15.1,8.8
				c0.2,0.1,0.4,0,0.5-0.1l8.3-9.3l1.4,5.9c0.1,0.2,0.3,0.3,0.6,0.3l12.7-5.7c0.2-0.1,0.4,0,0.5,0.2L63,30c0.2,0.5,0.9,0.1,0.7-0.3
				l-7.2-18.3c-0.1-0.2-0.3-0.3-0.5-0.2l-11.9,5c-0.2,0.1-0.4,0-0.5-0.2l-1.5-3.2L52.6,1.1c0.3-0.3,0-0.8-0.3-0.8
				C52.1,0.2,52,0.3,51.9,0.4"/>
		</defs>
		<clipPath id="SVGID_00000173866176219771023430000003541085855631983547_">
			<use xlink:href="#SVGID_1_"  style="overflow:visible;"/>
		</clipPath>
		
			<linearGradient id="SVGID_00000030467523298771131500000001168537214903988665_" gradientUnits="userSpaceOnUse" x1="-326.4449" y1="329.5845" x2="-325.4449" y2="329.5845" gradientTransform="matrix(63.5139 0 0 -63.5139 20734.1016 20948.5742)">
			<stop  offset="0" style="stop-color:#009691"/>
			<stop  offset="1" style="stop-color:#4696D2"/>
		</linearGradient>
		
			<rect y="0.2" style="clip-path:url(#SVGID_00000173866176219771023430000003541085855631983547_);fill:url(#SVGID_00000030467523298771131500000001168537214903988665_);" width="64" height="30.2"/>
	</g>
	<polygon class="st1" points="40.8,9.6 39.3,10.9 40.2,14.9 42.2,12.7 	"/>
	<polygon class="st1" points="81.9,31.4 81.9,27.5 80.2,30.1 80.2,30.1 78.5,27.5 78.5,31.4 77.2,31.4 77.2,25.4 78.6,25.4 
		80.2,27.9 81.8,25.4 83.2,25.4 83.2,31.4 	"/>
	<path class="st1" d="M89.4,31.5c-1.9,0-3.2-1.4-3.2-3.1v0c0-1.7,1.4-3.1,3.2-3.1c1.9,0,3.2,1.4,3.2,3.1v0
		C92.7,30.1,91.3,31.5,89.4,31.5 M91.3,28.4c0-1-0.8-1.9-1.8-1.9c-1.1,0-1.8,0.9-1.8,1.9v0c0,1,0.8,1.9,1.8,1.9S91.3,29.5,91.3,28.4
		L91.3,28.4z"/>
	<path class="st1" d="M98.2,31.5c-1.6,0-2.6-0.9-2.6-2.7v-3.5h1.3v3.4c0,1,0.5,1.5,1.3,1.5c0.8,0,1.3-0.5,1.3-1.5v-3.5h1.3v3.4
		C100.9,30.6,99.8,31.5,98.2,31.5"/>
	<polygon class="st1" points="108.3,31.4 105.4,27.6 105.4,31.4 104.1,31.4 104.1,25.4 105.3,25.4 108.2,29.1 108.2,25.4 
		109.5,25.4 109.5,31.4 	"/>
	<polygon class="st1" points="115.4,26.6 115.4,31.4 114,31.4 114,26.6 112.2,26.6 112.2,25.4 117.2,25.4 117.2,26.6 	"/>
	<path class="st1" d="M123.8,31.4l-0.6-1.4h-2.6l-0.6,1.4h-1.4l2.6-6.1h1.2l2.6,6.1H123.8z M121.9,26.9l-0.8,2h1.6L121.9,26.9z"/>
	<rect x="127.9" y="25.4" class="st1" width="1.3" height="6.1"/>
	<polygon class="st1" points="136.8,31.4 133.8,27.6 133.8,31.4 132.5,31.4 132.5,25.4 133.7,25.4 136.6,29.1 136.6,25.4 
		137.9,25.4 137.9,31.4 	"/>
	<path class="st1" d="M149.1,31.4l-1.3-1.9h-1.1v1.9h-1.3v-6.1h2.8c1.4,0,2.3,0.8,2.3,2v0c0,1-0.5,1.6-1.3,1.9l1.5,2.2H149.1z
		 M149.2,27.4c0-0.6-0.4-0.9-1.1-0.9h-1.3v1.7h1.4C148.8,28.3,149.2,28,149.2,27.4L149.2,27.4z"/>
	<polygon class="st1" points="153.5,31.4 153.5,25.4 158.1,25.4 158.1,26.5 154.9,26.5 154.9,27.8 157.7,27.8 157.7,29 154.9,29 
		154.9,30.2 158.2,30.2 158.2,31.4 	"/>
	<path class="st1" d="M163.3,31.5c-0.9,0-1.9-0.3-2.6-1l0.8-0.9c0.5,0.5,1.1,0.7,1.8,0.7c0.5,0,0.9-0.2,0.9-0.6v0
		c0-0.3-0.2-0.5-1.2-0.8c-1.2-0.3-2-0.7-2-1.9v0c0-1.1,0.9-1.8,2.1-1.8c0.9,0,1.6,0.3,2.3,0.8l-0.7,1c-0.5-0.4-1.1-0.6-1.6-0.6
		c-0.5,0-0.8,0.2-0.8,0.5v0c0,0.4,0.3,0.5,1.3,0.8c1.2,0.3,1.9,0.8,1.9,1.8v0C165.5,30.8,164.6,31.5,163.3,31.5"/>
	<path class="st1" d="M171.3,31.5c-1.9,0-3.2-1.4-3.2-3.1v0c0-1.7,1.4-3.1,3.2-3.1c1.9,0,3.2,1.4,3.2,3.1v0
		C174.6,30.1,173.2,31.5,171.3,31.5 M173.2,28.4c0-1-0.8-1.9-1.8-1.9c-1.1,0-1.8,0.9-1.8,1.9v0c0,1,0.8,1.9,1.8,1.9
		S173.2,29.5,173.2,28.4L173.2,28.4z"/>
	<path class="st1" d="M181.2,31.4l-1.3-1.9h-1.1v1.9h-1.3v-6.1h2.8c1.4,0,2.3,0.8,2.3,2v0c0,1-0.5,1.6-1.3,1.9l1.5,2.2H181.2z
		 M181.3,27.4c0-0.6-0.4-0.9-1.1-0.9h-1.3v1.7h1.4C180.9,28.3,181.3,28,181.3,27.4L181.3,27.4z"/>
	<polygon class="st1" points="188.3,26.6 188.3,31.4 187,31.4 187,26.6 185.2,26.6 185.2,25.4 190.2,25.4 190.2,26.6 	"/>
	<path class="st1" d="M110.7,6c-0.4,0.2-1,0.2-1.5,0.4c-0.5,0.2-0.7,0.9-1.2,1.1c-0.2,0.1-0.3,0.2-0.4,0.4c0.3,0.8,0.5,1.6,0.5,2.5
		v0.1c0,3.5-2.5,6.3-6,6.3S96,13.9,96,10.4v-0.1c0-3.4,2.5-6.3,6-6.3c1.5,0,2.7,0.5,3.7,1.3c0.4-0.2,0.8-0.6,1.2-0.7
		c0.5-0.2,1.4,0.9,1.8,0.7c0.5-0.2,0.9-0.7,1.3-0.8c0.2-0.1,0.5-0.1,0.7-0.2c-1.9-2.6-5-4.4-8.8-4.4c-6.2,0-10.7,4.7-10.7,10.4v0.1
		c0,5.7,4.5,10.4,10.7,10.4c6.2,0,10.7-4.7,10.7-10.4v-0.1c0-1.7-0.4-3.4-1.2-4.8C111.3,5.7,111,5.8,110.7,6"/>
	<path class="st1" d="M158.4,12.5c-0.1,0-0.2,0-0.3,0.1c-0.3,0.1-0.4,0.8-0.7,0.9c-0.3,0.1-0.3,1.2-0.6,1.3c-0.3,0.1-1-0.6-1.3-0.5
		c-0.3,0.1-0.4,0.4-0.6,0.5l2.3,5.7h4.6L158.4,12.5z"/>
	<path class="st1" d="M153.6,11.7c0.3,0,0.7,0.2,1,0.1c0.3-0.1,0.6-0.4,0.9-0.5c0.3-0.1,0.6-0.5,0.9-0.6c0.3-0.1,1.1,1,1.4,0.9
		c0.1,0,0.1-0.1,0.2-0.1l-4.8-11.2h-4.1l-8.6,20.3h4.5l6.1-15L153.6,11.7z"/>
	<path class="st1" d="M193.8,4.4c0.5-0.2,0.9-0.5,1.4-0.7c0.5-0.2,0.9-0.6,1.4-0.8c0,0,0.1,0,0.1,0V0.3h-4.4v4.2
		C192.7,4.4,193.3,4.6,193.8,4.4"/>
	<path class="st1" d="M196.5,7.2c-0.5,0.2-1.3-0.5-1.8-0.4c-0.5,0.2-0.9,0.7-1.3,0.8c-0.3,0.1-0.7,0-1.1-0.1v12.8h4.4V7.1
		C196.6,7.2,196.6,7.2,196.5,7.2"/>
	<rect x="116.8" y="7.2" class="st1" width="1.8" height="6.5"/>
	<path class="st1" d="M166.8,8.3c-0.8,0-0.8-0.5-1.6-0.5c-0.8,0-0.8,0.4-1.6,0.4v12.3h4.4v-11C167.6,9.4,167.4,8.3,166.8,8.3"/>
	<path class="st1" d="M165.2,6.6c0.8,0,0.8,0.6,1.6,0.6c0.6,0,0.8,0.1,1.2,0.3V0.3h-4.4v7.4C164.3,7.7,164.4,6.6,165.2,6.6"/>
	<path class="st1" d="M72.7,4.5c0.5-0.1,1-0.5,1.5-0.6c0.5,0,1,0,1.5-0.1c0.2,0,0.5-0.1,0.7-0.3V0.3H72v3.7
		C72.2,4.3,72.5,4.6,72.7,4.5"/>
	<path class="st1" d="M84.6,13.7C84.6,13.7,84.6,13.7,84.6,13.7c0.8,0,0.8,2.9,1.6,2.9s0.8,0,1.6,0c0.6,0,0.8-1.2,1.2-1.7V0.3h-4.4
		v8h-8.2V5c-0.2,0-0.3,0-0.5,0.1c-0.4,0.1-0.9,0.2-1.5,0.4c-0.5,0.1-1,0-1.5,0.1c-0.3,0.1-0.6,0.4-1,0.7v14.2h4.4v-8.1h8.2V13.7z"/>
	<path class="st1" d="M87.8,18.1c-0.8,0-0.8,0.4-1.6,0.4c-0.8,0-0.8-1.4-1.6-1.4c0,0,0,0,0,0v3.3H89v-2.9
		C88.6,17.8,88.4,18.1,87.8,18.1"/>
	<path class="st1" d="M185.9,19.3c-0.3-0.8-3.1,0.2-3.4-0.5c-0.3-0.8,0.8-1.1,0.5-1.9c0-0.1-0.1-0.2-0.1-0.3
		c-0.6,0.1-1.1,0.2-1.8,0.2c-3.6,0-6.1-2.7-6.1-6.4v-0.1c0-3.4,2.6-6.3,5.8-6.3c2.3,0,3.7,0.7,5.3,2l2.8-3.4
		C186.8,1,184.6,0,180.9,0c-6.1,0-10.6,4.7-10.6,10.4v0.1c0,6,4.3,10.4,10.6,10.4c2,0,3.7-0.4,5.2-1.1
		C186.1,19.6,186,19.5,185.9,19.3"/>
	<path class="st1" d="M180.8,8.9v3.8h4.5v2.9c0.2,0.1,0.4,0.2,0.5,0.4c0.3,0.8,0.5,0.7,0.8,1.4c0.3,0.8-0.4,1-0.1,1.8
		c0.1,0.2,0.2,0.3,0.3,0.4c1.1-0.5,2.1-1.2,2.9-1.9V8.9H180.8z"/>
	<path class="st1" d="M131.2,0.3h-7.8v4.8c0.4,0.3,0.8,0.7,1.2,0.8c0.6,0.1,1,1.1,1.7,1.2c0.4,0.1,1-0.5,1.5-0.8V4.3h3.4
		c3.6,0,6.1,2.5,6.1,6.1v0.1c0,3.6-2.4,6-6.1,6h-3.4V9.8c-0.2,0-0.3,0-0.5-0.1c-0.6-0.2-1-1-1.5-1.2c-0.6-0.2-1.3-0.2-1.8-0.5
		c-0.2-0.1-0.4-0.3-0.6-0.4v12.8h7.8c6.3,0,10.7-4.4,10.7-10.1v-0.1C141.9,4.7,137.5,0.3,131.2,0.3"/>
	<path class="st2" d="M195.4,58.3H1.6c-0.7,0-1.3-0.8-1.3-1.9V41.3c0-1,0.6-1.9,1.3-1.9h193.9c0.7,0,1.3,0.8,1.3,1.9v15.1
		C196.7,57.4,196.1,58.3,195.4,58.3"/>
</g>
<g>
	<path class="st1" d="M16.4,49.7V53h-2.7v0.6h-0.7v-2.8c-0.2,0.3-0.5,0.6-0.7,0.9c-0.1-0.2-0.4-0.5-0.5-0.6c0.7-0.6,1.1-1.5,1.4-2.5
		h-0.8v-0.7h1c0.1-0.3,0.1-0.7,0.2-1h-1.6v-0.7h1.7c0-0.3,0.1-0.7,0.1-1.1h-1.3v-0.7h3.8v1.7h0.6v0.7h-0.6v1.7h-2.4
		c-0.1,0.4-0.2,0.7-0.4,1.1H16.4z M13.7,50.4v2h1.9v-2H13.7z M14.2,46.9c-0.1,0.4-0.1,0.7-0.2,1h1.5v-1H14.2z M14.4,45.1
		c0,0.4-0.1,0.7-0.1,1.1h1.2v-1.1H14.4z M21.5,51.1h-2.1v2.5h-0.8v-2.5h-2v-0.7h2v-1.5h-1.6v-0.7h1.6v-1.4H17V46h4.3v0.7h-1.8v1.4
		h1.6v0.7h-1.6v1.5h2.1V51.1z M17.8,46c-0.1-0.5-0.4-1.2-0.7-1.8l0.6-0.2c0.3,0.5,0.7,1.2,0.8,1.7L17.8,46z M21.1,44.1
		c-0.3,0.6-0.6,1.3-0.9,1.8l-0.6-0.2c0.3-0.5,0.6-1.3,0.8-1.8L21.1,44.1z"/>
	<path class="st1" d="M22.4,53.1c0.7-0.6,1-1.5,1.2-2.4l0.7,0.2c-0.2,1-0.5,2-1.3,2.6L22.4,53.1z M31.8,49.5c0,0,0,0.2,0,0.3
		c-0.1,2.2-0.3,3.1-0.6,3.4c-0.2,0.2-0.4,0.3-0.7,0.3c-0.3,0-0.8,0-1.3,0c0-0.2-0.1-0.5-0.2-0.7c0.5,0.1,1,0.1,1.2,0.1
		c0.2,0,0.3,0,0.4-0.1c0.2-0.2,0.3-0.9,0.4-2.6h-7.2v-5.8h7.4v0.7h-3.4v1h3v0.6h-3v1h3v0.6h-3v1H31.8z M24.5,45.1v1H27v-1H24.5z
		 M27,46.8h-2.5v1H27V46.8z M24.5,49.5H27v-1h-2.5V49.5z M25.8,50.9c0.2,0.7,0.3,1.5,0.4,2.1l-0.7,0.1c0-0.6-0.1-1.4-0.3-2.1
		L25.8,50.9z M27.5,50.8c0.3,0.6,0.6,1.4,0.7,1.8l-0.7,0.2c-0.1-0.5-0.3-1.3-0.6-1.9L27.5,50.8z M29.5,52.3c-0.2-0.4-0.5-1-0.9-1.5
		l0.6-0.2c0.4,0.4,0.8,1,0.9,1.4L29.5,52.3z"/>
	<path class="st1" d="M35.7,45.1c0.6,0,2-0.1,2.4-0.1c0.2,0,0.4-0.1,0.5-0.1l0.5,0.4c-0.1,0.1-0.2,0.2-0.3,0.3
		c-0.3,0.5-0.8,1.6-1.2,2.5c1.1,0.1,2.1,0.5,2.9,0.8c0-0.3,0.1-0.5,0.1-0.8c0-0.3,0-0.7,0-1l0.9,0.1c0,0.8-0.1,1.4-0.2,2
		c0.5,0.3,0.9,0.6,1.3,0.8l-0.4,0.9c-0.3-0.3-0.7-0.6-1.1-0.8c-0.4,1.4-1.3,2.4-2.8,3.2l-0.7-0.6c1.7-0.7,2.4-1.8,2.8-3
		c-0.9-0.5-1.9-0.9-3-1c-0.4,0.9-0.9,2.2-1.3,2.8c-0.4,0.5-0.8,0.7-1.3,0.7c-0.8,0-1.4-0.6-1.4-1.5c0-1.6,1.4-2.8,3.5-2.8
		c0.4-0.8,0.8-1.8,1.1-2.4c-0.4,0-1.7,0.1-2.2,0.1c-0.2,0-0.5,0-0.8,0.1l0-0.9C35.2,45,35.5,45.1,35.7,45.1z M34.7,51.6
		c0.2,0,0.4-0.1,0.6-0.4c0.4-0.5,0.8-1.5,1.2-2.3c-1.5,0.1-2.4,1-2.4,2C34.1,51.3,34.4,51.6,34.7,51.6z"/>
	<path class="st1" d="M47.5,46c0.6-0.1,1.1-0.2,1.7-0.4l0,0.8c-0.6,0.2-1.2,0.3-1.9,0.4c-0.5,1.5-1.5,3.3-2.3,4.5l-0.8-0.4
		c0.9-1,1.8-2.7,2.3-4c-0.3,0-0.6,0-0.9,0c-0.4,0-0.8,0-1.2,0l-0.1-0.8c0.4,0.1,0.8,0.1,1.3,0.1c0.4,0,0.8,0,1.2-0.1
		c0.2-0.6,0.3-1.3,0.3-1.8l0.9,0.1C47.8,44.8,47.7,45.4,47.5,46z M50.4,48.8c0,0.4,0.1,1.1,0.1,1.7c0.9,0.3,1.7,0.8,2.2,1.3
		l-0.5,0.7c-0.5-0.4-1-0.9-1.7-1.2c0,0.2,0,0.3,0,0.4c0,0.8-0.5,1.5-1.9,1.5c-1.2,0-2.1-0.5-2.1-1.5c0-1,0.9-1.6,2.1-1.6
		c0.4,0,0.7,0,1,0.1c0-0.9-0.1-1.9-0.1-2.7h0.8C50.4,48.1,50.4,48.4,50.4,48.8z M48.6,52.6c0.9,0,1.2-0.5,1.2-1c0-0.1,0-0.3,0-0.5
		c-0.3-0.1-0.7-0.2-1.1-0.2c-0.8,0-1.3,0.4-1.3,0.8C47.4,52.2,47.8,52.6,48.6,52.6z M50.1,46.5l0.4-0.6c0.8,0.3,2,1,2.5,1.4
		l-0.5,0.7C52,47.5,50.8,46.8,50.1,46.5z"/>
	<path class="st1" d="M58.3,45.2c-0.1,0.3-0.2,0.9-0.3,1.5c0.5,0,0.9-0.1,1.2-0.1c0.9,0,1.7,0.4,1.7,1.8c0,1.3-0.2,2.9-0.6,3.8
		c-0.3,0.7-0.9,0.9-1.5,0.9c-0.4,0-0.9-0.1-1.3-0.2l-0.1-0.9c0.4,0.1,1,0.2,1.3,0.2c0.4,0,0.7-0.1,0.9-0.5c0.3-0.7,0.5-2.1,0.5-3.2
		c0-1-0.5-1.2-1.1-1.2c-0.3,0-0.7,0-1.1,0.1c-0.4,1.5-1.1,3.9-2.2,5.7l-0.9-0.3c1.1-1.5,1.9-3.9,2.2-5.3c-0.6,0.1-1.1,0.1-1.3,0.1
		c-0.2,0-0.7,0.1-1,0.1l-0.1-0.9c0.3,0,0.6,0,0.9,0c0.4,0,1-0.1,1.6-0.1c0.2-0.8,0.3-1.6,0.3-2.3l1,0.1C58.4,44.7,58.3,45,58.3,45.2
		z M64,49.4l-0.8,0.4c-0.3-1.1-1.1-3-1.9-3.8l0.8-0.3C62.7,46.5,63.6,48.5,64,49.4z"/>
	<path class="st1" d="M67.5,45.1c0.6,0,2-0.1,2.4-0.1c0.2,0,0.4-0.1,0.5-0.1l0.5,0.4c-0.1,0.1-0.2,0.2-0.3,0.3
		c-0.3,0.5-0.8,1.6-1.2,2.5c1.1,0.1,2.1,0.5,2.9,0.8c0-0.3,0.1-0.5,0.1-0.8c0-0.3,0-0.7,0-1l0.9,0.1c0,0.8-0.1,1.4-0.2,2
		c0.5,0.3,0.9,0.6,1.3,0.8L74,51.1c-0.3-0.3-0.7-0.6-1.1-0.8c-0.4,1.4-1.3,2.4-2.8,3.2l-0.7-0.6c1.7-0.7,2.4-1.8,2.8-3
		c-0.9-0.5-1.9-0.9-3-1c-0.4,0.9-0.9,2.2-1.3,2.8c-0.4,0.5-0.8,0.7-1.3,0.7c-0.8,0-1.4-0.6-1.4-1.5c0-1.6,1.4-2.8,3.5-2.8
		c0.4-0.8,0.8-1.8,1.1-2.4c-0.4,0-1.7,0.1-2.2,0.1c-0.2,0-0.5,0-0.8,0.1l0-0.9C67,45,67.3,45.1,67.5,45.1z M66.5,51.6
		c0.2,0,0.4-0.1,0.6-0.4c0.4-0.5,0.8-1.5,1.2-2.3c-1.5,0.1-2.4,1-2.4,2C65.9,51.3,66.2,51.6,66.5,51.6z"/>
	<path class="st1" d="M79.9,45.5c-0.2,1-0.5,3-0.5,4.2c0,0.5,0,1,0.1,1.5c0.2-0.5,0.4-1.2,0.6-1.6l0.4,0.4c-0.3,0.7-0.6,1.8-0.8,2.3
		c0,0.1-0.1,0.3-0.1,0.5c0,0.1,0,0.3,0,0.4L79,53.2c-0.2-0.8-0.4-1.9-0.4-3.4c0-1.6,0.3-3.5,0.5-4.4c0-0.2,0.1-0.5,0.1-0.8l0.9,0.1
		C80,44.9,79.9,45.3,79.9,45.5z M86.8,45v0.7c-0.5,0.1-1.1,0.1-1.7,0.1v1.8c0.7,0,1.4-0.1,2-0.2v0.8c-0.6,0.1-1.2,0.1-2,0.1
		c0,0.7,0.1,1.4,0.1,2c1,0.3,1.7,0.9,2.3,1.4l-0.5,0.7c-0.5-0.6-1.1-1-1.8-1.3c0,0.2,0,0.4,0,0.5c0,0.9-0.6,1.4-1.7,1.4
		c-1.2,0-2-0.5-2-1.5c0-0.7,0.6-1.5,2-1.5c0.3,0,0.6,0,0.9,0.1c0-0.5-0.1-1.2-0.1-1.7c-0.8,0-1.7,0-2.6,0v-0.8
		c0.9,0.1,1.7,0.1,2.6,0.1v-1.8c-0.8,0-1.6,0-2.4,0v-0.7C83.6,45.3,85.5,45.2,86.8,45z M83.3,52.3c0.8,0,1-0.4,1-1
		c0-0.1,0-0.3,0-0.4c-0.3-0.1-0.7-0.1-1-0.1c-0.8,0-1.3,0.3-1.3,0.8C82.1,52.1,82.6,52.3,83.3,52.3z"/>
	<path class="st1" d="M93.8,47.7c-1.2,0-2.3,0.3-2.9,0.5c-0.3,0.1-0.6,0.2-0.9,0.3l-0.3-1c0.3,0,0.7-0.1,1-0.2
		c0.7-0.2,2-0.5,3.2-0.5c1.5,0,2.6,0.8,2.6,2.4c0,2.3-2.1,3.6-4.8,4l-0.5-0.8c2.6-0.3,4.4-1.3,4.4-3.2
		C95.6,48.4,94.9,47.7,93.8,47.7z M95.6,45l-0.1,0.8c-1.2-0.1-3.3-0.3-4.5-0.5l0.1-0.8C92.3,44.8,94.6,45,95.6,45z"/>
	<path class="st1" d="M102.7,45.4c0,0.2-0.1,0.5-0.2,0.8c0.7-0.1,1.4-0.2,2-0.4v0.8c-0.7,0.2-1.5,0.3-2.2,0.4
		c-0.1,0.5-0.2,1-0.3,1.4c-0.4,1.5-1.1,3.7-1.7,4.9L99.5,53c0.6-1.1,1.4-3.2,1.8-4.7c0.1-0.3,0.2-0.8,0.3-1.1c-0.3,0-0.7,0-1,0
		c-0.5,0-0.8,0-1.2,0l0-0.8c0.5,0.1,0.9,0.1,1.3,0.1c0.3,0,0.7,0,1.1-0.1c0.1-0.4,0.1-0.7,0.2-0.9c0-0.3,0.1-0.7,0-0.9l1,0.1
		C102.9,44.8,102.8,45.2,102.7,45.4z M104,51.4c0,0.5,0.3,1,1.8,1c0.7,0,1.4-0.1,2.1-0.2l0,0.9c-0.6,0.1-1.3,0.2-2,0.2
		c-1.7,0-2.6-0.5-2.6-1.6c0-0.4,0.1-0.8,0.2-1.3l0.8,0.1C104.1,50.8,104,51.1,104,51.4z M105.9,47.7c0.6,0,1.3,0,1.8,0.1l0,0.8
		c-0.5-0.1-1.2-0.1-1.8-0.1c-0.7,0-1.3,0-2,0.1v-0.8C104.5,47.8,105.2,47.7,105.9,47.7z M107.4,46.4l-0.6,0.3
		c-0.2-0.4-0.6-1.1-0.9-1.5l0.6-0.2C106.8,45.3,107.2,46,107.4,46.4z M108.6,46l-0.6,0.3c-0.2-0.5-0.6-1.1-0.9-1.5l0.6-0.2
		C108,44.9,108.4,45.6,108.6,46z"/>
	<path class="st1" d="M111.4,46.4c0,0.7,0,1.6,0.1,2.5c0.2,1.8,0.7,2.9,1.4,2.9c0.5,0,1-1.1,1.3-2.2l0.7,0.8c-0.6,1.8-1.3,2.4-2,2.4
		c-1,0-2-1-2.3-3.7c-0.1-0.9-0.1-2.2-0.1-2.8c0-0.2,0-0.7-0.1-0.9l1,0C111.5,45.7,111.4,46.1,111.4,46.4z M118.9,51l-0.8,0.4
		c-0.2-1.9-0.8-4.1-1.8-5.3l0.8-0.3C118,46.9,118.8,49.2,118.9,51z"/>
	<path class="st1" d="M124.4,44.5l0.9-0.1c0,0.4,0.1,0.8,0.3,1.3c0.7-0.1,1.4-0.2,2-0.4l0.1,0.8c-0.5,0.1-1.2,0.3-1.9,0.4
		c0.1,0.3,0.2,0.5,0.2,0.7c0.1,0.2,0.1,0.4,0.2,0.6c0.9-0.1,1.6-0.3,2.1-0.5l0.1,0.8c-0.5,0.1-1.2,0.3-1.9,0.4
		c0.2,0.5,0.5,0.9,0.7,1.3c0.1,0.2,0.2,0.3,0.4,0.5l-0.4,0.6c-0.6-0.2-1.6-0.3-2.3-0.3l0.1-0.6c0.6,0.1,1.3,0.1,1.6,0.2
		c-0.3-0.5-0.6-1-0.8-1.5c-1.3,0.1-3,0.1-4.7,0l0-0.8c1.6,0.2,3.2,0.2,4.4,0.1c-0.1-0.2-0.1-0.4-0.2-0.6c-0.1-0.3-0.2-0.6-0.3-0.8
		c-1,0.1-2.3,0-3.7-0.1l0-0.8c1.3,0.1,2.5,0.2,3.5,0.1c0-0.1-0.1-0.2-0.1-0.3C124.6,45.1,124.5,44.8,124.4,44.5z M122.1,51.2
		c0,0.9,0.8,1.3,2.4,1.3c1,0,1.8-0.1,2.5-0.2l0,0.8c-0.7,0.1-1.6,0.2-2.5,0.2c-2.1,0-3.2-0.6-3.3-2c0-0.6,0.2-1,0.4-1.5l0.8,0.2
		C122.3,50.4,122.1,50.8,122.1,51.2z M128.7,45.8l-0.6,0.3c-0.2-0.5-0.5-1-0.9-1.5l0.5-0.2C128,44.7,128.4,45.3,128.7,45.8z
		 M129.8,45.3l-0.6,0.3c-0.3-0.5-0.6-1-0.9-1.5l0.5-0.2C129.2,44.2,129.6,44.9,129.8,45.3z"/>
	<path class="st1" d="M135.2,44.6l1-0.2c0,0.2,0.1,0.5,0.1,0.7c0,0.1,0.1,0.6,0.2,1.1c1-0.2,2-0.3,2.4-0.4c0.3-0.1,0.6-0.1,0.8-0.2
		l0.2,0.9c-0.2,0-0.5,0.1-0.8,0.1c-0.5,0.1-1.5,0.2-2.5,0.4c0.1,0.7,0.3,1.4,0.4,2.1c1.1-0.2,2.1-0.4,2.6-0.4
		c0.4-0.1,0.7-0.1,0.9-0.2l0.2,0.9c-0.2,0-0.6,0.1-1,0.1c-0.6,0.1-1.6,0.3-2.6,0.4c0.2,1,0.4,1.9,0.4,2.1c0.1,0.3,0.2,0.7,0.3,1
		l-1,0.2c-0.1-0.4-0.1-0.7-0.2-1c0-0.2-0.2-1.1-0.4-2.1c-1.2,0.2-2.3,0.4-2.9,0.5c-0.4,0.1-0.7,0.1-0.9,0.2l-0.2-0.9
		c0.2,0,0.7-0.1,0.9-0.1c0.5-0.1,1.7-0.3,2.9-0.4c-0.1-0.7-0.3-1.5-0.4-2.1c-1,0.2-1.9,0.3-2.3,0.4c-0.3,0.1-0.5,0.1-0.9,0.2l-0.2-1
		c0.3,0,0.5,0,0.9-0.1c0.4,0,1.3-0.2,2.3-0.3c-0.1-0.6-0.2-1-0.2-1.1C135.3,45,135.2,44.8,135.2,44.6z"/>
	<path class="st1" d="M146,47c0.1,0.2,0.2,0.7,0.3,1.3c1.5-0.3,3.3-0.6,3.7-0.7c0.1,0,0.3-0.1,0.4-0.1l0.5,0.4
		c-0.4,0.9-1.5,2.4-2.3,3.1l-0.8-0.4c0.7-0.6,1.5-1.5,1.8-2.2c-0.2,0-1.7,0.3-3.2,0.6c0.4,1.5,0.9,3.4,1.1,3.9
		c0.1,0.2,0.2,0.5,0.2,0.7l-0.9,0.2c0-0.2-0.1-0.5-0.2-0.8c-0.1-0.5-0.6-2.4-1.1-3.9c-1,0.2-1.9,0.4-2.2,0.4l-0.2-0.8
		c0.3,0,0.6-0.1,0.9-0.1c0.1,0,0.6-0.1,1.3-0.2c-0.2-0.6-0.3-1-0.3-1.2c-0.1-0.3-0.2-0.5-0.3-0.6l0.9-0.2
		C145.9,46.5,146,46.7,146,47z"/>
	<path class="st1" d="M158.2,50.6c1.6-1,2.9-2.6,3.5-3.9l0.5,0.9c-0.7,1.3-2,2.8-3.6,3.8c-1.1,0.7-2.4,1.3-4.2,1.6l-0.6-0.9
		C155.8,51.9,157.1,51.2,158.2,50.6z M157.5,47.2l-0.7,0.7c-0.5-0.6-1.9-1.7-2.6-2.2l0.6-0.6C155.6,45.5,156.9,46.6,157.5,47.2z"/>
	<path class="st1" d="M172.3,44c0.7,0,1.2,0.5,1.2,1.2s-0.5,1.2-1.2,1.2c-0.1,0-0.3,0-0.4-0.1c0,0,0,0.1,0,0.1
		c-0.2,1.1-0.7,2.8-1.6,3.9c-1,1.2-2.2,2.2-4.2,2.8l-0.7-0.8c2.1-0.5,3.3-1.4,4.1-2.5c0.8-1,1.3-2.4,1.4-3.5h-5.4
		c-0.4,0-0.8,0-1.1,0v-0.9c0.3,0,0.7,0.1,1.1,0.1h5.3c0.1,0,0.2,0,0.3,0c0-0.1-0.1-0.2-0.1-0.3C171.1,44.5,171.6,44,172.3,44z
		 M172.3,45.9c0.4,0,0.7-0.3,0.7-0.7c0-0.4-0.3-0.7-0.7-0.7c-0.4,0-0.7,0.3-0.7,0.7C171.6,45.6,171.9,45.9,172.3,45.9z"/>
	<path class="st1" d="M177.4,50.1c-1.1,0.5-2.2,1.1-3.1,1.5l-0.3-0.8c0.4-0.2,0.9-0.4,1.4-0.6V47h-1.2v-0.7h1.2V44h0.7v2.2h1.1V47
		h-1.1v3l1.1-0.5L177.4,50.1z M179.4,48.9c-0.1,0.3-0.3,0.5-0.5,0.7h4.6c0,0,0,0.2,0,0.3c-0.2,2.2-0.3,3-0.6,3.3
		c-0.2,0.2-0.4,0.2-0.6,0.3c-0.2,0-0.6,0-1,0c0-0.2-0.1-0.5-0.2-0.6c0.4,0,0.7,0,0.9,0c0.1,0,0.2,0,0.3-0.1c0.2-0.2,0.3-0.9,0.5-2.5
		h-0.8c-0.4,1.3-1.3,2.6-2.2,3.3c-0.1-0.2-0.4-0.3-0.6-0.5c0.9-0.6,1.6-1.7,2.1-2.9h-1c-0.6,1.1-1.6,2.2-2.6,2.9
		c-0.1-0.2-0.3-0.4-0.5-0.5c0.9-0.5,1.8-1.4,2.4-2.4h-1.1c-0.4,0.5-0.9,0.9-1.4,1.2c-0.1-0.1-0.4-0.4-0.5-0.5
		c0.8-0.5,1.6-1.3,2.1-2.1h-1.5v-0.7h6.6v0.7H179.4z M183,47.7h-4.8v-3.4h4.8V47.7z M182.3,44.8h-3.4v0.8h3.4V44.8z M182.3,46.2
		h-3.4v0.8h3.4V46.2z"/>
</g>
</svg>
